<svg xmlns="http://www.w3.org/2000/svg" xmlns:xlink="http://www.w3.org/1999/xlink" width="500" zoomAndPan="magnify" viewBox="0 0 375 374.999991" height="500" preserveAspectRatio="xMidYMid meet" version="1.0"><defs><g><g id="id1"/></g><clipPath id="id2"><path d="M 99 65.597656 L 276 65.597656 L 276 211 L 99 211 Z M 99 65.597656 " clip-rule="nonzero"/></clipPath><clipPath id="id3"><path d="M 127 98 L 248 98 L 248 241.847656 L 127 241.847656 Z M 127 98 " clip-rule="nonzero"/></clipPath></defs><g clip-path="url(#id2)"><path fill="rgb(13.729858%, 12.159729%, 12.548828%)" d="M 275.714844 174.480469 C 274.199219 158.492188 269.78125 154.214844 268.140625 153.078125 C 266.5 151.945312 266.121094 149.679688 265.492188 149.050781 C 265.285156 148.847656 263.671875 148.230469 261.554688 147.515625 L 261.914062 147.574219 C 261.324219 129.558594 258.371094 65.96875 187.695312 65.601562 C 187.675781 65.601562 187.660156 65.601562 187.644531 65.601562 C 187.625 65.601562 187.609375 65.601562 187.59375 65.601562 C 116.917969 65.972656 113.964844 129.558594 113.375 147.574219 L 113.734375 147.515625 C 111.613281 148.226562 110 148.847656 109.796875 149.050781 C 109.167969 149.679688 108.789062 151.945312 107.144531 153.078125 C 105.503906 154.210938 101.085938 158.488281 99.570312 174.480469 C 98.054688 190.460938 103.675781 199.007812 107.746094 199.957031 C 108.964844 203.960938 116.234375 209.34375 121.917969 209.976562 C 127.597656 210.601562 133.785156 207.707031 133.785156 207.707031 C 133.785156 207.707031 136.265625 207.171875 136.816406 204.460938 C 126.84375 185.097656 130.640625 146.15625 130.640625 146.15625 C 130.640625 146.15625 127.09375 145.402344 125.707031 144.648438 C 125.644531 131.050781 135.617188 112.925781 135.617188 112.925781 C 135.617188 112.925781 141.300781 116.890625 148.6875 106.585938 C 156.074219 96.28125 176.335938 92.726562 187.597656 92.789062 C 187.613281 92.789062 187.632812 92.789062 187.648438 92.789062 C 187.664062 92.789062 187.679688 92.789062 187.699219 92.789062 C 198.960938 92.726562 219.222656 96.28125 226.609375 106.585938 C 233.996094 116.894531 239.679688 112.925781 239.679688 112.925781 C 239.679688 112.925781 249.652344 131.050781 249.589844 144.648438 C 248.203125 145.402344 244.652344 146.15625 244.652344 146.15625 C 244.652344 146.15625 248.453125 185.097656 238.480469 204.460938 C 239.03125 207.171875 241.511719 207.707031 241.511719 207.707031 C 241.511719 207.707031 247.695312 210.601562 253.375 209.976562 C 259.058594 209.34375 266.332031 203.964844 267.550781 199.957031 C 271.613281 199.007812 277.230469 190.464844 275.714844 174.480469 Z M 103.480469 193.863281 C 102.851562 192.730469 101.460938 186.996094 101.144531 179.578125 C 100.621094 167.285156 104.867188 158.492188 104.867188 158.492188 L 106.507812 156.917969 C 106.507812 156.917969 105.246094 163.90625 104.742188 171.707031 C 104.238281 179.511719 105.566406 193.054688 106.953125 197.335938 C 105.058594 196.757812 104.113281 194.996094 103.480469 193.863281 Z M 114.375 203.882812 C 111.9375 196.382812 110.933594 181.929688 111.910156 158.664062 C 107.613281 178.707031 110.207031 195.871094 111.925781 202.414062 C 110.996094 201.761719 110.257812 201.105469 109.855469 200.535156 C 108.53125 198.644531 107.207031 189.675781 106.953125 175.988281 C 106.703125 162.300781 110.234375 152.105469 111.464844 150.878906 C 112.695312 149.652344 119.230469 147.574219 119.230469 147.574219 C 119.230469 147.574219 116.578125 155.222656 115.914062 168.628906 C 115.253906 182.03125 116.292969 195.4375 119.796875 205.820312 C 118.121094 205.558594 116.144531 204.804688 114.375 203.882812 Z M 126.996094 147.574219 C 123.398438 156.542969 122.167969 174.667969 124.25 204.460938 C 116.390625 175.421875 122.453125 150.875 124.25 147.574219 C 124.25 147.574219 126.238281 146.816406 126.996094 147.574219 Z M 118.066406 144.5625 C 117.738281 144.859375 116.714844 145.003906 115.726562 144.5625 C 115.734375 132.613281 122.050781 109.683594 123.660156 108.328125 C 124.25 108.515625 125.289062 108.914062 126.332031 109.765625 C 122.664062 114.746094 119.441406 128.550781 118.066406 144.5625 Z M 187.640625 74.792969 C 182.65625 74.863281 159.375 75.953125 136.371094 89.515625 C 139.9375 85.023438 155.789062 68.859375 187.589844 68.386719 L 187.589844 68.382812 C 187.609375 68.382812 187.625 68.386719 187.640625 68.386719 C 187.65625 68.386719 187.675781 68.382812 187.691406 68.382812 L 187.691406 68.386719 C 219.496094 68.859375 235.347656 85.023438 238.910156 89.515625 C 215.910156 75.953125 192.625 74.863281 187.640625 74.792969 Z M 248.949219 109.765625 C 249.992188 108.914062 251.03125 108.515625 251.625 108.328125 C 253.234375 109.683594 259.546875 132.613281 259.554688 144.5625 C 258.570312 145.003906 257.542969 144.859375 257.21875 144.5625 C 255.839844 128.550781 252.621094 114.746094 248.949219 109.765625 Z M 251.035156 204.460938 C 253.117188 174.664062 251.886719 156.542969 248.289062 147.574219 C 249.046875 146.816406 251.035156 147.574219 251.035156 147.574219 C 252.832031 150.878906 258.890625 175.421875 251.035156 204.460938 Z M 265.425781 200.535156 C 265.023438 201.101562 264.285156 201.761719 263.355469 202.414062 C 265.078125 195.871094 267.667969 178.707031 263.371094 158.664062 C 264.351562 181.929688 263.34375 196.382812 260.910156 203.882812 C 259.136719 204.804688 257.164062 205.558594 255.484375 205.820312 C 258.988281 195.4375 260.03125 182.03125 259.367188 168.628906 C 258.703125 155.222656 256.054688 147.574219 256.054688 147.574219 C 256.054688 147.574219 262.585938 149.652344 263.816406 150.878906 C 265.046875 152.105469 268.578125 162.300781 268.328125 175.988281 C 268.078125 189.679688 266.75 198.644531 265.425781 200.535156 Z M 274.136719 179.578125 C 273.824219 186.996094 272.433594 192.730469 271.800781 193.863281 C 271.167969 194.996094 270.222656 196.757812 268.328125 197.335938 C 269.714844 193.058594 271.046875 179.511719 270.539062 171.710938 C 270.035156 163.90625 268.773438 156.921875 268.773438 156.921875 L 270.414062 158.496094 C 270.410156 158.492188 274.660156 167.285156 274.136719 179.578125 Z M 274.136719 179.578125 " fill-opacity="1" fill-rule="nonzero"/></g><g clip-path="url(#id3)"><path fill="rgb(13.729858%, 12.159729%, 12.548828%)" d="M 241.398438 183.828125 C 241.167969 176.589844 244.09375 176.5625 246.480469 163.234375 C 253.941406 121.574219 218.125 98.34375 187.898438 98.34375 C 187.8125 98.347656 187.726562 98.355469 187.640625 98.359375 C 187.554688 98.355469 187.472656 98.347656 187.382812 98.34375 C 157.15625 98.34375 121.339844 121.574219 128.804688 163.234375 C 131.191406 176.558594 134.113281 176.585938 133.882812 183.828125 C 133.753906 187.941406 130.375 194.25 127.28125 198.503906 C 129.792969 199.699219 132.914062 201.445312 135.308594 204.214844 C 137.949219 202.773438 142.195312 200.96875 146.90625 200.96875 C 151.296875 200.96875 155.140625 202.625 158.011719 205.761719 C 164.042969 212.355469 161.511719 218.800781 158.824219 223.078125 C 157.882812 224.582031 157.957031 226.484375 158.910156 227.980469 C 160.152344 229.9375 160.8125 231.71875 160.957031 233.597656 C 161.058594 234.976562 162.035156 236.132812 163.359375 236.554688 C 164.441406 236.898438 165.792969 237.367188 167.296875 237.914062 C 167.894531 238.132812 168.53125 237.691406 168.53125 237.054688 L 168.53125 236.707031 C 168.53125 235.808594 169.144531 234.996094 170.023438 234.820312 C 171.234375 234.574219 172.300781 235.492188 172.300781 236.65625 L 172.300781 238.898438 C 172.300781 239.308594 172.574219 239.675781 172.972656 239.785156 C 174.230469 240.132812 175.492188 240.441406 176.765625 240.699219 C 177.332031 240.816406 177.863281 240.371094 177.863281 239.796875 L 177.863281 239.570312 C 177.863281 238.671875 178.472656 237.324219 179.355469 237.144531 C 180.566406 236.902344 181.628906 238.355469 181.628906 239.519531 L 181.628906 240.613281 C 181.628906 241.085938 181.988281 241.484375 182.460938 241.53125 C 185.90625 241.855469 189.371094 241.855469 192.820312 241.53125 C 193.292969 241.484375 193.652344 241.085938 193.652344 240.613281 L 193.652344 239.570312 C 193.652344 238.671875 194.261719 237.859375 195.140625 237.683594 C 196.351562 237.4375 197.417969 238.355469 197.417969 239.519531 L 197.417969 239.796875 C 197.417969 240.375 197.945312 240.816406 198.515625 240.699219 C 199.789062 240.441406 201.050781 240.132812 202.308594 239.785156 C 202.707031 239.675781 202.980469 239.308594 202.980469 238.898438 L 202.980469 236.703125 C 202.980469 235.808594 203.589844 234.996094 204.472656 234.816406 C 205.683594 234.574219 206.746094 235.488281 206.746094 236.65625 L 206.746094 237.054688 C 206.746094 237.691406 207.382812 238.128906 207.984375 237.914062 C 209.492188 237.367188 210.839844 236.898438 211.921875 236.554688 C 213.242188 236.132812 214.21875 234.976562 214.328125 233.59375 C 214.46875 231.71875 215.128906 229.933594 216.375 227.976562 C 217.324219 226.480469 217.398438 224.578125 216.457031 223.078125 C 213.773438 218.796875 211.238281 212.355469 217.273438 205.761719 C 220.144531 202.621094 223.984375 200.964844 228.378906 200.964844 C 233.085938 200.964844 237.332031 202.769531 239.972656 204.214844 C 242.367188 201.445312 245.488281 199.699219 248 198.5 C 244.910156 194.25 241.53125 187.941406 241.398438 183.828125 Z M 187.640625 108.328125 C 209.789062 108.328125 227.738281 119.203125 227.738281 132.625 C 227.738281 146.042969 209.789062 156.921875 187.640625 156.921875 C 165.496094 156.921875 147.542969 146.042969 147.542969 132.625 C 147.542969 119.203125 165.496094 108.328125 187.640625 108.328125 Z M 172.957031 186.152344 C 173.972656 186.015625 175.089844 185.828125 176.308594 185.574219 C 176.90625 185.445312 177.242188 186.242188 176.726562 186.566406 C 174.851562 187.734375 171.398438 189.28125 165.140625 190.386719 C 148.902344 192.777344 145.722656 183.40625 139.46875 182.078125 C 139.070312 180.753906 138.597656 171.167969 148.421875 163.851562 C 148.855469 161.738281 140.710938 164.101562 140.710938 164.101562 C 140.710938 164.101562 149.03125 159.199219 156.753906 161.332031 C 165.761719 163.820312 174.773438 170.898438 179.808594 175.875 C 180.980469 177.03125 180.664062 179.800781 179.578125 181.039062 C 177.980469 182.859375 175.09375 184.703125 172.957031 186.152344 Z M 195.664062 209.882812 C 194.972656 210.949219 194.34375 212.074219 193.796875 213.132812 C 192.898438 214.863281 190.394531 214.808594 189.609375 213.023438 C 189.253906 212.210938 188.417969 211.871094 187.640625 211.972656 C 186.859375 211.871094 186.023438 212.210938 185.667969 213.023438 C 184.886719 214.804688 182.378906 214.859375 181.480469 213.132812 C 180.933594 212.074219 180.304688 210.949219 179.613281 209.882812 C 178.164062 207.644531 177.246094 204.316406 179.132812 202.433594 C 184.429688 197.15625 186.492188 187.496094 187.378906 187.496094 C 187.453125 187.496094 187.539062 187.5625 187.636719 187.679688 C 187.734375 187.5625 187.820312 187.496094 187.894531 187.496094 C 188.777344 187.496094 190.84375 197.15625 196.140625 202.433594 C 198.03125 204.320312 197.113281 207.644531 195.664062 209.882812 Z M 236.324219 182.078125 C 230.070312 183.40625 226.890625 192.777344 210.65625 190.386719 C 204.394531 189.28125 200.941406 187.734375 199.066406 186.566406 C 198.550781 186.242188 198.886719 185.445312 199.484375 185.574219 C 200.703125 185.828125 201.824219 186.015625 202.835938 186.152344 C 200.699219 184.703125 197.8125 182.859375 196.214844 181.035156 C 195.128906 179.796875 194.808594 177.027344 195.980469 175.871094 C 201.019531 170.898438 210.027344 163.816406 219.035156 161.328125 C 226.757812 159.195312 235.078125 164.101562 235.078125 164.101562 C 235.078125 164.101562 226.929688 161.738281 227.367188 163.851562 C 237.195312 171.167969 236.722656 180.753906 236.324219 182.078125 Z M 236.324219 182.078125 " fill-opacity="1" fill-rule="nonzero"/></g><path fill="rgb(15.289307%, 65.879822%, 42.349243%)" d="M 196.523438 151.878906 L 191.789062 151.796875 L 186.628906 125.730469 L 182.925781 143.382812 L 178.226562 143.558594 L 174.574219 131.015625 L 173.121094 135.039062 L 150.964844 135.039062 L 150.964844 130.207031 L 169.71875 130.207031 L 172.550781 122.390625 L 177.152344 122.539062 L 180.171875 132.910156 L 184.324219 113.109375 L 189.074219 113.136719 L 194.367188 139.878906 L 198.621094 121.765625 L 203.253906 121.492188 L 206.128906 129.382812 L 223.9375 129.382812 L 223.9375 134.210938 L 202.734375 134.210938 L 201.480469 130.769531 Z M 196.523438 151.878906 " fill-opacity="1" fill-rule="nonzero"/><g fill="rgb(15.289307%, 65.879822%, 42.349243%)" fill-opacity="1"><g transform="translate(108.105466, 291.445498)"><g><path d="M 10.25 -24.25 C 13.570312 -24.25 16.15625 -23.554688 18 -22.171875 C 19.84375 -20.796875 20.765625 -18.769531 20.765625 -16.09375 C 20.765625 -13.332031 19.882812 -11.21875 18.125 -9.75 C 16.375 -8.289062 14.015625 -7.5625 11.046875 -7.5625 L 8.671875 -7.5625 L 8.671875 0 L 1.5 0 L 1.5 -24.25 Z M 10.34375 -12.609375 C 12.414062 -12.609375 13.453125 -13.769531 13.453125 -16.09375 C 13.453125 -18.207031 12.347656 -19.265625 10.140625 -19.265625 L 8.671875 -19.265625 L 8.671875 -12.609375 Z M 10.34375 -12.609375 "/></g></g></g><g fill="rgb(15.289307%, 65.879822%, 42.349243%)" fill-opacity="1"><g transform="translate(129.392666, 291.445498)"><g><path d="M 10.171875 -19.296875 C 13.148438 -19.296875 15.488281 -18.425781 17.1875 -16.6875 C 18.894531 -14.945312 19.75 -12.472656 19.75 -9.265625 C 19.75 -7.265625 19.359375 -5.507812 18.578125 -4 C 17.804688 -2.488281 16.695312 -1.328125 15.25 -0.515625 C 13.8125 0.296875 12.117188 0.703125 10.171875 0.703125 C 7.203125 0.703125 4.863281 -0.164062 3.15625 -1.90625 C 1.445312 -3.65625 0.59375 -6.132812 0.59375 -9.34375 C 0.59375 -11.332031 0.976562 -13.082031 1.75 -14.59375 C 2.53125 -16.101562 3.640625 -17.265625 5.078125 -18.078125 C 6.523438 -18.890625 8.222656 -19.296875 10.171875 -19.296875 Z M 10.171875 -14.359375 C 9.285156 -14.359375 8.644531 -13.960938 8.25 -13.171875 C 7.863281 -12.378906 7.671875 -11.101562 7.671875 -9.34375 C 7.671875 -7.5 7.863281 -6.1875 8.25 -5.40625 C 8.644531 -4.632812 9.285156 -4.25 10.171875 -4.25 C 11.054688 -4.25 11.695312 -4.644531 12.09375 -5.4375 C 12.488281 -6.226562 12.6875 -7.503906 12.6875 -9.265625 C 12.6875 -11.097656 12.488281 -12.40625 12.09375 -13.1875 C 11.695312 -13.96875 11.054688 -14.359375 10.171875 -14.359375 Z M 10.171875 -14.359375 "/></g></g></g><g fill="rgb(15.289307%, 65.879822%, 42.349243%)" fill-opacity="1"><g transform="translate(149.739184, 291.445498)"><g><path d="M 19.484375 -25.921875 L 19.484375 0 L 13.34375 0 L 13.09375 -1.921875 C 11.769531 -0.171875 10.019531 0.703125 7.84375 0.703125 C 5.5 0.703125 3.734375 -0.191406 2.546875 -1.984375 C 1.359375 -3.773438 0.765625 -6.25 0.765625 -9.40625 C 0.765625 -11.3125 1.085938 -13.015625 1.734375 -14.515625 C 2.390625 -16.015625 3.300781 -17.1875 4.46875 -18.03125 C 5.644531 -18.875 7 -19.296875 8.53125 -19.296875 C 10.132812 -19.296875 11.484375 -18.8125 12.578125 -17.84375 L 12.578125 -26.625 Z M 10.171875 -4.25 C 11.148438 -4.25 11.953125 -4.796875 12.578125 -5.890625 L 12.578125 -13.34375 C 12.253906 -13.695312 11.925781 -13.957031 11.59375 -14.125 C 11.269531 -14.300781 10.910156 -14.390625 10.515625 -14.390625 C 9.703125 -14.390625 9.050781 -13.988281 8.5625 -13.1875 C 8.082031 -12.382812 7.84375 -11.101562 7.84375 -9.34375 C 7.84375 -7.289062 8.046875 -5.925781 8.453125 -5.25 C 8.859375 -4.582031 9.429688 -4.25 10.171875 -4.25 Z M 10.171875 -4.25 "/></g></g></g><g fill="rgb(15.289307%, 65.879822%, 42.349243%)" fill-opacity="1"><g transform="translate(170.67798, 291.445498)"><g><path d="M 19.859375 -9.75 L 19.859375 -4.671875 L 17.421875 -4.671875 L 17.421875 0 L 10.65625 0 L 10.625 -4.671875 L 0.703125 -4.671875 L 0.703125 -9.15625 L 7.21875 -24.421875 L 13.09375 -22.328125 L 7.765625 -9.75 L 10.703125 -9.75 L 11.5 -14.90625 L 17.421875 -14.90625 L 17.421875 -9.75 Z M 19.859375 -9.75 "/></g></g></g><g fill="rgb(15.289307%, 65.879822%, 42.349243%)" fill-opacity="1"><g transform="translate(191.059334, 291.445498)"><g><path d="M 19.484375 -25.921875 L 19.484375 0 L 13.34375 0 L 13.09375 -1.921875 C 11.769531 -0.171875 10.019531 0.703125 7.84375 0.703125 C 5.5 0.703125 3.734375 -0.191406 2.546875 -1.984375 C 1.359375 -3.773438 0.765625 -6.25 0.765625 -9.40625 C 0.765625 -11.3125 1.085938 -13.015625 1.734375 -14.515625 C 2.390625 -16.015625 3.300781 -17.1875 4.46875 -18.03125 C 5.644531 -18.875 7 -19.296875 8.53125 -19.296875 C 10.132812 -19.296875 11.484375 -18.8125 12.578125 -17.84375 L 12.578125 -26.625 Z M 10.171875 -4.25 C 11.148438 -4.25 11.953125 -4.796875 12.578125 -5.890625 L 12.578125 -13.34375 C 12.253906 -13.695312 11.925781 -13.957031 11.59375 -14.125 C 11.269531 -14.300781 10.910156 -14.390625 10.515625 -14.390625 C 9.703125 -14.390625 9.050781 -13.988281 8.5625 -13.1875 C 8.082031 -12.382812 7.84375 -11.101562 7.84375 -9.34375 C 7.84375 -7.289062 8.046875 -5.925781 8.453125 -5.25 C 8.859375 -4.582031 9.429688 -4.25 10.171875 -4.25 Z M 10.171875 -4.25 "/></g></g></g><g fill="rgb(15.289307%, 65.879822%, 42.349243%)" fill-opacity="1"><g transform="translate(211.998129, 291.445498)"><g><path d="M 18.984375 -9.546875 C 18.984375 -8.960938 18.9375 -8.234375 18.84375 -7.359375 L 7.5625 -7.359375 C 7.75 -6.097656 8.132812 -5.253906 8.71875 -4.828125 C 9.3125 -4.398438 10.171875 -4.1875 11.296875 -4.1875 C 11.941406 -4.1875 12.597656 -4.316406 13.265625 -4.578125 C 13.941406 -4.847656 14.6875 -5.257812 15.5 -5.8125 L 18.296875 -2.0625 C 16.035156 -0.21875 13.476562 0.703125 10.625 0.703125 C 7.320312 0.703125 4.820312 -0.207031 3.125 -2.03125 C 1.4375 -3.863281 0.59375 -6.273438 0.59375 -9.265625 C 0.59375 -11.128906 0.945312 -12.820312 1.65625 -14.34375 C 2.363281 -15.863281 3.414062 -17.066406 4.8125 -17.953125 C 6.207031 -18.847656 7.890625 -19.296875 9.859375 -19.296875 C 11.691406 -19.296875 13.289062 -18.910156 14.65625 -18.140625 C 16.03125 -17.378906 17.09375 -16.265625 17.84375 -14.796875 C 18.601562 -13.335938 18.984375 -11.585938 18.984375 -9.546875 Z M 12.1875 -11.5 C 12.164062 -12.59375 12 -13.441406 11.6875 -14.046875 C 11.375 -14.648438 10.8125 -14.953125 10 -14.953125 C 9.226562 -14.953125 8.648438 -14.679688 8.265625 -14.140625 C 7.890625 -13.609375 7.644531 -12.644531 7.53125 -11.25 L 12.1875 -11.25 Z M 12.1875 -11.5 "/></g></g></g><g fill="rgb(15.289307%, 65.879822%, 42.349243%)" fill-opacity="1"><g transform="translate(231.403966, 291.445498)"><g><path d="M 18.84375 -18.609375 L 13.3125 0 L 5.15625 0 L -0.515625 -18.609375 L 6.96875 -18.609375 L 9.296875 -4.984375 L 11.875 -18.609375 Z M 18.84375 -18.609375 "/></g></g></g><g fill="rgb(15.289307%, 65.879822%, 42.349243%)" fill-opacity="1"><g transform="translate(249.729767, 291.445498)"><g><path d="M 8.921875 -19.296875 C 10.285156 -19.296875 11.601562 -19.082031 12.875 -18.65625 C 14.144531 -18.226562 15.207031 -17.644531 16.0625 -16.90625 L 13.625 -13.171875 C 12.945312 -13.585938 12.222656 -13.914062 11.453125 -14.15625 C 10.691406 -14.40625 9.941406 -14.53125 9.203125 -14.53125 C 8.148438 -14.53125 7.625 -14.25 7.625 -13.6875 C 7.625 -13.457031 7.691406 -13.265625 7.828125 -13.109375 C 7.972656 -12.960938 8.304688 -12.78125 8.828125 -12.5625 C 9.347656 -12.34375 10.191406 -12.054688 11.359375 -11.703125 C 13.210938 -11.128906 14.585938 -10.394531 15.484375 -9.5 C 16.378906 -8.601562 16.828125 -7.34375 16.828125 -5.71875 C 16.828125 -4.457031 16.445312 -3.335938 15.6875 -2.359375 C 14.9375 -1.390625 13.894531 -0.632812 12.5625 -0.09375 C 11.226562 0.4375 9.710938 0.703125 8.015625 0.703125 C 6.390625 0.703125 4.863281 0.441406 3.4375 -0.078125 C 2.007812 -0.609375 0.804688 -1.335938 -0.171875 -2.265625 L 3.09375 -5.890625 C 3.789062 -5.328125 4.550781 -4.878906 5.375 -4.546875 C 6.207031 -4.210938 7.03125 -4.046875 7.84375 -4.046875 C 8.46875 -4.046875 8.945312 -4.144531 9.28125 -4.34375 C 9.625 -4.539062 9.796875 -4.820312 9.796875 -5.1875 C 9.796875 -5.507812 9.71875 -5.757812 9.5625 -5.9375 C 9.414062 -6.113281 9.109375 -6.285156 8.640625 -6.453125 C 8.171875 -6.628906 7.359375 -6.894531 6.203125 -7.25 C 2.597656 -8.3125 0.796875 -10.320312 0.796875 -13.28125 C 0.796875 -14.414062 1.113281 -15.4375 1.75 -16.34375 C 2.394531 -17.25 3.328125 -17.96875 4.546875 -18.5 C 5.765625 -19.03125 7.222656 -19.296875 8.921875 -19.296875 Z M 8.921875 -19.296875 "/></g></g></g></svg>